<svg width="168" height="50" viewBox="0 0 168 50" fill="none" xmlns="http://www.w3.org/2000/svg">
<rect x="0.5" y="0.5" width="167" height="49" rx="4.5" fill="white"/>
<rect x="0.5" y="0.5" width="167" height="49" rx="4.5" stroke="black"/>
<path d="M84.7914 27.1888C81.8645 27.1888 79.4789 29.4251 79.4789 32.5051C79.4789 35.5663 81.8645 37.8213 84.7914 37.8213C87.7196 37.8213 90.1052 35.5663 90.1052 32.5051C90.104 29.4251 87.7184 27.1888 84.7914 27.1888ZM84.7914 35.7288C83.1874 35.7288 81.8048 34.4001 81.8048 32.5063C81.8048 30.5926 83.1886 29.2838 84.7914 29.2838C86.3955 29.2838 87.7781 30.5926 87.7781 32.5063C87.7781 34.3988 86.3955 35.7288 84.7914 35.7288ZM73.2007 27.1888C70.2738 27.1888 67.8882 29.4251 67.8882 32.5051C67.8882 35.5663 70.2738 37.8213 73.2007 37.8213C76.1289 37.8213 78.5145 35.5663 78.5145 32.5051C78.5145 29.4251 76.1289 27.1888 73.2007 27.1888ZM73.2007 35.7288C71.5966 35.7288 70.214 34.4001 70.214 32.5063C70.214 30.5926 71.5978 29.2838 73.2007 29.2838C74.8048 29.2838 76.1874 30.5926 76.1874 32.5063C76.1886 34.3988 74.8048 35.7288 73.2007 35.7288ZM59.4147 28.8213V31.0763H64.7882C64.6277 32.3451 64.2071 33.2713 63.565 33.9151C62.7834 34.7001 61.5602 35.5663 59.4147 35.5663C56.107 35.5663 53.521 32.8876 53.521 29.5651C53.521 26.2426 56.107 23.5638 59.4147 23.5638C61.1993 23.5638 62.5022 24.2688 63.4642 25.1751L65.0483 23.5838C63.7043 22.2951 61.921 21.3088 59.4147 21.3088C54.8837 21.3088 51.0745 25.0138 51.0745 29.5651C51.0745 34.1163 54.8837 37.8213 59.4147 37.8213C61.8601 37.8213 63.7056 37.0151 65.1479 35.5051C66.6313 34.0151 67.093 31.9201 67.093 30.2288C67.093 29.7063 67.0531 29.2226 66.9722 28.8201H59.4147V28.8213ZM115.798 30.5726C115.357 29.3851 114.013 27.1888 111.267 27.1888C108.54 27.1888 106.274 29.3438 106.274 32.5051C106.274 35.4851 108.521 37.8213 111.527 37.8213C113.953 37.8213 115.356 36.3313 115.939 35.4651L114.134 34.2563C113.533 35.1426 112.711 35.7263 111.527 35.7263C110.345 35.7263 109.502 35.1826 108.961 34.1151L116.038 31.1751L115.798 30.5726ZM108.58 32.3451C108.521 30.2901 110.164 29.2438 111.348 29.2438C112.27 29.2438 113.052 29.7076 113.313 30.3713L108.58 32.3451ZM102.827 37.5001H105.152V21.8738H102.827V37.5001ZM99.0167 28.3776H98.937C98.4156 27.7526 97.4126 27.1888 96.1507 27.1888C93.5038 27.1888 91.0784 29.5251 91.0784 32.5263C91.0784 35.5063 93.5038 37.8226 96.1507 37.8226C97.4138 37.8226 98.4156 37.2588 98.937 36.6151H99.0167V37.3801C99.0167 39.4138 97.934 40.5013 96.1906 40.5013C94.7669 40.5013 93.8846 39.4751 93.5237 38.6088L91.499 39.4551C92.0802 40.8638 93.6233 42.5963 96.1906 42.5963C98.9171 42.5963 101.223 40.9851 101.223 37.0576V27.5126H99.0179V28.3776H99.0167ZM96.3511 35.7288C94.747 35.7288 93.4042 34.3788 93.4042 32.5263C93.4042 30.6526 94.747 29.2838 96.3511 29.2838C97.934 29.2838 99.1772 30.6526 99.1772 32.5263C99.1772 34.3788 97.934 35.7288 96.3511 35.7288ZM126.692 21.8738H121.128V37.5001H123.449V31.5801H126.691C129.264 31.5801 131.795 29.7088 131.795 26.7276C131.795 23.7463 129.265 21.8738 126.692 21.8738ZM126.752 29.4051H123.449V24.0488H126.752C128.488 24.0488 129.473 25.4926 129.473 26.7276C129.473 27.9376 128.488 29.4051 126.752 29.4051ZM141.103 27.1613C139.421 27.1613 137.68 27.9051 136.96 29.5538L139.021 30.4176C139.461 29.5538 140.282 29.2713 141.142 29.2713C142.343 29.2713 143.564 29.9951 143.584 31.2813V31.4426C143.163 31.2013 142.262 30.8401 141.162 30.8401C138.941 30.8401 136.679 32.0663 136.679 34.3576C136.679 36.4488 138.5 37.7951 140.541 37.7951C142.102 37.7951 142.963 37.0913 143.503 36.2663H143.583V37.4726H145.825V31.4813C145.826 28.7088 143.763 27.1613 141.103 27.1613ZM140.821 35.7251C140.062 35.7251 139.001 35.3426 139.001 34.3976C139.001 33.1913 140.322 32.7288 141.463 32.7288C142.483 32.7288 142.964 32.9501 143.584 33.2513C143.404 34.7001 142.163 35.7251 140.821 35.7251ZM153.991 27.5026L151.329 34.2776H151.25L148.487 27.5026H145.986L150.129 36.9713L147.767 42.2388H150.188L156.573 27.5026H153.991ZM133.077 37.5001H135.398V21.8738H133.077V37.5001Z" fill="black"/>
<path d="M59.0092 12.8037C59.0092 13.8512 58.7006 14.685 58.0821 15.3075C57.3803 16.0475 56.4644 16.4175 55.3394 16.4175C54.2617 16.4175 53.3445 16.0425 52.5916 15.2925C51.8375 14.5412 51.4604 13.6112 51.4604 12.5012C51.4604 11.39 51.8375 10.46 52.5916 9.70999C53.3445 8.95874 54.2617 8.58374 55.3394 8.58374C55.8745 8.58374 56.386 8.68874 56.8713 8.89749C57.3579 9.10749 57.7474 9.38624 58.0386 9.73499L57.3828 10.395C56.8887 9.80124 56.208 9.50499 55.3381 9.50499C54.5516 9.50499 53.8722 9.78249 53.2985 10.3375C52.7248 10.8925 52.4386 11.6137 52.4386 12.5C52.4386 13.3862 52.7248 14.1075 53.2985 14.6625C53.8722 15.2175 54.5516 15.495 55.3381 15.495C56.1719 15.495 56.8676 15.2162 57.4238 14.6575C57.7847 14.2937 57.9938 13.7875 58.0498 13.1387H55.3381V12.2375H58.9557C58.9931 12.4337 59.0092 12.6225 59.0092 12.8037Z" fill="black"/>
<path d="M64.7463 9.67131H61.3464V12.0488H64.4127V12.9501H61.3464V15.3276H64.7463V16.2501H60.387V8.75006H64.7463V9.67131Z" fill="black"/>
<path d="M68.7918 16.2501H67.8323V9.67131H65.7466V8.75006H70.8775V9.67131H68.7918V16.2501Z" fill="black"/>
<path d="M74.5896 16.2501V8.75006H75.5491V16.2501H74.5896Z" fill="black"/>
<path d="M79.804 16.2501H78.8446V9.67131H76.7589V8.75006H81.8897V9.67131H79.804V16.2501Z" fill="black"/>
<path d="M91.6023 15.2813C90.8681 16.0388 89.9559 16.4175 88.8646 16.4175C87.7732 16.4175 86.861 16.0388 86.128 15.2813C85.3938 14.5238 85.0279 13.5963 85.0279 12.5C85.0279 11.4038 85.3938 10.4763 86.128 9.7188C86.861 8.9613 87.7732 8.5813 88.8646 8.5813C89.9497 8.5813 90.8607 8.96255 91.5974 9.7238C92.3341 10.485 92.7024 11.41 92.7024 12.5C92.7024 13.5963 92.3353 14.5238 91.6023 15.2813ZM86.8361 14.6525C87.3887 15.215 88.0644 15.495 88.8646 15.495C89.6647 15.495 90.3417 15.2138 90.893 14.6525C91.4455 14.09 91.7231 13.3725 91.7231 12.5C91.7231 11.6275 91.4455 10.91 90.893 10.3475C90.3417 9.78505 89.6647 9.50505 88.8646 9.50505C88.0644 9.50505 87.3887 9.7863 86.8361 10.3475C86.2848 10.91 86.0073 11.6275 86.0073 12.5C86.0073 13.3725 86.2848 14.09 86.8361 14.6525Z" fill="black"/>
<path d="M94.0489 16.2501V8.75006H95.2162L98.845 14.5838H98.8861L98.845 13.1388V8.75006H99.8045V16.2501H98.8027L95.0059 10.1326H94.9649L95.0059 11.5776V16.2501H94.0489Z" fill="black"/>
<path d="M59.0092 12.8037C59.0092 13.8512 58.7006 14.685 58.0821 15.3075C57.3803 16.0475 56.4644 16.4175 55.3394 16.4175C54.2617 16.4175 53.3445 16.0425 52.5916 15.2925C51.8375 14.5412 51.4604 13.6112 51.4604 12.5012C51.4604 11.39 51.8375 10.46 52.5916 9.70999C53.3445 8.95874 54.2617 8.58374 55.3394 8.58374C55.8745 8.58374 56.386 8.68874 56.8713 8.89749C57.3579 9.10749 57.7474 9.38624 58.0386 9.73499L57.3828 10.395C56.8887 9.80124 56.208 9.50499 55.3381 9.50499C54.5516 9.50499 53.8722 9.78249 53.2985 10.3375C52.7248 10.8925 52.4386 11.6137 52.4386 12.5C52.4386 13.3862 52.7248 14.1075 53.2985 14.6625C53.8722 15.2175 54.5516 15.495 55.3381 15.495C56.1719 15.495 56.8676 15.2162 57.4238 14.6575C57.7847 14.2937 57.9938 13.7875 58.0498 13.1387H55.3381V12.2375H58.9557C58.9931 12.4337 59.0092 12.6225 59.0092 12.8037Z" stroke="black" stroke-width="0.2" stroke-miterlimit="10"/>
<path d="M64.7463 9.67131H61.3464V12.0488H64.4127V12.9501H61.3464V15.3276H64.7463V16.2501H60.387V8.75006H64.7463V9.67131Z" stroke="black" stroke-width="0.2" stroke-miterlimit="10"/>
<path d="M68.7918 16.2501H67.8323V9.67131H65.7466V8.75006H70.8775V9.67131H68.7918V16.2501Z" stroke="black" stroke-width="0.2" stroke-miterlimit="10"/>
<path d="M74.5896 16.2501V8.75006H75.5491V16.2501H74.5896Z" stroke="black" stroke-width="0.2" stroke-miterlimit="10"/>
<path d="M79.804 16.2501H78.8446V9.67131H76.7589V8.75006H81.8897V9.67131H79.804V16.2501Z" stroke="black" stroke-width="0.2" stroke-miterlimit="10"/>
<path d="M91.6023 15.2813C90.8681 16.0388 89.9559 16.4175 88.8646 16.4175C87.7732 16.4175 86.861 16.0388 86.128 15.2813C85.3938 14.5238 85.0279 13.5963 85.0279 12.5C85.0279 11.4038 85.3938 10.4763 86.128 9.7188C86.861 8.9613 87.7732 8.5813 88.8646 8.5813C89.9497 8.5813 90.8607 8.96255 91.5974 9.7238C92.3341 10.485 92.7024 11.41 92.7024 12.5C92.7024 13.5963 92.3353 14.5238 91.6023 15.2813ZM86.8361 14.6525C87.3887 15.215 88.0644 15.495 88.8646 15.495C89.6647 15.495 90.3417 15.2138 90.893 14.6525C91.4455 14.09 91.7231 13.3725 91.7231 12.5C91.7231 11.6275 91.4455 10.91 90.893 10.3475C90.3417 9.78505 89.6647 9.50505 88.8646 9.50505C88.0644 9.50505 87.3887 9.7863 86.8361 10.3475C86.2848 10.91 86.0073 11.6275 86.0073 12.5C86.0073 13.3725 86.2848 14.09 86.8361 14.6525Z" stroke="black" stroke-width="0.2" stroke-miterlimit="10"/>
<path d="M94.0489 16.2501V8.75006H95.2162L98.845 14.5838H98.8861L98.845 13.1388V8.75006H99.8045V16.2501H98.8027L95.0059 10.1326H94.9649L95.0059 11.5776V16.2501H94.0489Z" stroke="black" stroke-width="0.2" stroke-miterlimit="10"/>
<path fill-rule="evenodd" clip-rule="evenodd" d="M15.9874 8.92456C16.6637 8.92456 17.2956 9.11256 17.837 9.43831L32.2854 17.8548L25.8764 24.2912L12.7989 11.158L12.7205 11.0794C13.2843 9.83069 14.5461 8.92456 15.9874 8.92456ZM12.4225 12.1973C12.4124 12.3039 12.4072 12.4117 12.4072 12.5203V37.4798C12.4072 37.5883 12.4124 37.696 12.4224 37.8027L25.1708 24.9998L12.4225 12.1973ZM12.7205 38.9205C13.2844 40.1692 14.5464 41.0754 15.9874 41.0754C16.6491 41.0754 17.2703 40.8957 17.8031 40.5803L17.8454 40.5554L32.3103 32.1696L25.8765 25.7084L12.7989 38.8419L12.7205 38.9205ZM33.205 31.6509L39.1609 28.198C40.2837 27.5892 41.0459 26.4002 41.0459 25.029C41.0459 23.6678 40.2939 22.4847 39.1823 21.8738L39.1696 21.865L33.1786 18.3751L26.5821 24.9998L33.205 31.6509Z" fill="black"/>
</svg>
